<svg width="283" height="299" viewBox="0 0 283 299" fill="none" xmlns="http://www.w3.org/2000/svg">
<path fill-rule="evenodd" clip-rule="evenodd" d="M110.384 96.5303C118.647 101.511 126.766 103.917 130.578 102.935C140.134 100.472 141.013 65.5105 133.619 51.7277C126.224 37.945 88.2102 31.9375 86.2942 59.2456C85.6292 68.7234 89.6088 77.1817 95.4888 84.0835L84.9457 133.224H115.571L110.384 96.5303Z" fill="#E3C2A3"/>
<path fill-rule="evenodd" clip-rule="evenodd" d="M137.264 38.7963C137.264 45.6118 131.921 51.1793 125.195 51.5384C121.347 52.7256 116.404 53.5973 110.921 53.9649C111.454 55.9665 111.743 58.2405 111.743 60.8102C111.743 63.0792 111.492 65.4856 111.031 67.929C109.842 66.5157 108.252 65.5934 106.639 65.5934C102.124 65.5934 98.9823 69.3069 98.9823 73.2497C98.9823 78.2537 101.871 81.8738 106.088 82.1633C102.291 89.4529 97.0382 94.9425 91.7909 94.9425C81.824 94.9425 74.7373 81.6171 74.7373 67.29C74.7373 66.7866 74.7473 66.2866 74.767 65.7903C71.3929 68.1056 68.2665 71.1406 65.1175 74.1974C58.4266 80.6924 51.6339 87.2863 42.1479 87.2863C23.1686 87.2863 15.6311 49.0047 42.1479 49.0047C60.1814 49.0047 69.052 51.634 76.6967 55.5221C78.2044 51.2715 80.5035 47.6977 83.3149 45.202C83.9912 44.4406 85.0282 43.7121 86.366 43.0368C87.1838 42.5894 88.03 42.225 88.8998 41.9508C93.5102 40.2565 100.188 39.0615 107.647 38.801C109.04 38.7524 110.408 38.7381 111.743 38.756C111.765 31.7271 117.469 26.0358 124.503 26.0358C131.551 26.0358 137.264 31.7489 137.264 38.7963Z" fill="#183E47"/>
<path fill-rule="evenodd" clip-rule="evenodd" d="M-29.8644 298.091C-24.8645 291.269 5.24237 217.922 5.24237 217.922L27.7152 221.991C27.7152 221.991 -11.4086 299.628 -14.1943 304.09C-17.813 309.887 -15.1342 319.709 -13.3178 326.369C-13.0368 327.399 -12.7764 328.354 -12.5632 329.206C-16.9054 330.297 -18.4549 327.78 -20.0885 325.125C-21.9336 322.127 -23.8859 318.955 -30.0907 320.612C-32.488 321.252 -34.7993 322.101 -37.0574 322.93C-44.8576 325.795 -52.0232 328.427 -59.9028 321.412C-61.1521 320.3 -62.1139 316.773 -57.9539 314.883C-47.5897 310.173 -32.3088 301.426 -29.8644 298.091ZM230.145 260.261L189.441 230.372L180.443 252.614L220.75 269.329C232.15 282.72 238.524 288.302 239.874 286.076C241.011 284.199 240.122 282.441 239.303 280.823C238.665 279.562 238.069 278.385 238.508 277.302C239.509 274.827 247.166 275.087 254.423 275.645C261.679 276.203 259.564 272.974 257.815 271.38C250.408 266.947 241.184 263.24 230.145 260.261Z" fill="#E3C2A3"/>
<path fill-rule="evenodd" clip-rule="evenodd" d="M115.908 124.345L102.26 129.942C102.404 133.506 102.39 138.577 102.373 144.386C102.323 162.619 102.252 188.128 106.962 197.182C123.282 228.547 156.791 244.885 194.113 263.081C199.116 265.52 204.187 267.993 209.294 270.539L219.563 249.576C218.373 248.733 217.194 247.886 216.026 247.033C217.639 246.468 218.984 245.191 219.572 243.446C220.585 240.44 218.97 237.183 215.964 236.171C209.857 234.113 204.16 233.245 198.923 233.621C160.678 201.395 134.932 163.668 115.908 124.345Z" fill="url(#paint0_linear)"/>
<path fill-rule="evenodd" clip-rule="evenodd" d="M54.3203 267.094C54.3203 267.094 114.496 273.705 149.05 267.094C151.904 266.548 151.778 254.245 150.455 250.885C129.844 198.56 116.286 160.256 116.286 123.912C110.613 126.875 96.43 124.8 96.43 124.8C71.019 162.254 59.3385 205.227 54.3203 267.094Z" fill="#183E47"/>
<path fill-rule="evenodd" clip-rule="evenodd" d="M-9.63165 410.127C21.4607 397.707 53.0549 401.807 81.5158 405.5C101.236 408.058 119.452 410.422 134.955 406.96C147.563 342.137 130.072 270.498 115.742 211.809C106.783 175.112 99.059 143.478 100.703 121.74H88.176L86.1906 121.74C86.1906 121.74 13.4628 166.376 -21.9969 267.727C-24.7742 268.239 -27.4081 269.134 -29.8905 270.42C-32.24 271.637 -28.9512 278.938 -26.1616 280.475C-27.1681 283.787 -28.1337 287.155 -29.0553 290.578L-4.95478 297.67C12.5017 251.658 33.1895 225.113 50.2797 209.887C50.3886 214.998 50.9252 220.141 51.4652 225.315L51.4653 225.315C52.4489 234.74 53.4436 244.272 51.8854 253.917C51.5804 255.805 51.2112 257.707 50.7829 259.621C48.333 259.912 46.2581 261.772 45.8076 264.327L45.1429 268.097C44.7938 270.077 45.504 271.999 46.8665 273.281C40.928 290.574 31.3884 308.661 21.8213 326.8C6.72843 355.415 -8.43292 384.16 -9.63165 410.127Z" fill="url(#paint1_linear)"/>
<path fill-rule="evenodd" clip-rule="evenodd" d="M58.5816 122.74L53.4225 138.605L63.8118 150.499L54.4225 159.845L77.1381 198.74L49.3594 159.923L58.5816 150.499L49.3594 139.988L58.5816 122.74Z" fill="black" fill-opacity="0.1"/>
<path fill-rule="evenodd" clip-rule="evenodd" d="M70.4759 213.74C72.685 213.74 74.4759 211.949 74.4759 209.74C74.4759 207.53 72.685 205.74 70.4759 205.74C68.2667 205.74 66.4759 207.53 66.4759 209.74C66.4759 211.949 68.2667 213.74 70.4759 213.74ZM75.4759 236.74C77.685 236.74 79.4759 234.949 79.4759 232.74C79.4759 230.53 77.685 228.74 75.4759 228.74C73.2667 228.74 71.4759 230.53 71.4759 232.74C71.4759 234.949 73.2667 236.74 75.4759 236.74ZM80.4759 255.74C80.4759 257.949 78.685 259.74 76.4759 259.74C74.2667 259.74 72.4759 257.949 72.4759 255.74C72.4759 253.53 74.2667 251.74 76.4759 251.74C78.685 251.74 80.4759 253.53 80.4759 255.74Z" fill="black" fill-opacity="0.4"/>
<path d="M282.354 151.354C282.549 151.158 282.549 150.842 282.354 150.646L279.172 147.464C278.976 147.269 278.66 147.269 278.464 147.464C278.269 147.66 278.269 147.976 278.464 148.172L281.293 151L278.464 153.828C278.269 154.024 278.269 154.34 278.464 154.536C278.66 154.731 278.976 154.731 279.172 154.536L282.354 151.354ZM253 151.5H282V150.5H253V151.5Z" fill="url(#paint2_linear)"/>
<defs>
<linearGradient id="paint0_linear" x1="98.9932" y1="171.127" x2="224.611" y2="206.089" gradientUnits="userSpaceOnUse">
<stop stop-color="#2298BD"/>
<stop offset="1" stop-color="#0ED7B5"/>
</linearGradient>
<linearGradient id="paint1_linear" x1="-35.4149" y1="214.024" x2="152.392" y2="252.32" gradientUnits="userSpaceOnUse">
<stop stop-color="#2298BD"/>
<stop offset="1" stop-color="#0ED7B5"/>
</linearGradient>
<linearGradient id="paint2_linear" x1="252.194" y1="151.32" x2="252.523" y2="154.614" gradientUnits="userSpaceOnUse">
<stop stop-color="#2298BD"/>
<stop offset="1" stop-color="#0ED7B5"/>
</linearGradient>
</defs>
</svg>
