<svg width="117" height="44" viewBox="0 0 117 44" fill="none" xmlns="http://www.w3.org/2000/svg">
<circle cx="2.49153" cy="2.49153" r="2.49153" fill="#C4C4C4"/>
<circle cx="2.49153" cy="28.4577" r="2.49153" fill="#C4C4C4"/>
<circle cx="2.49153" cy="15.4746" r="2.49153" fill="#C4C4C4"/>
<circle cx="2.49153" cy="41.4407" r="2.49153" fill="#C4C4C4"/>
<circle cx="16.4746" cy="2.49153" r="2.49153" fill="#C4C4C4"/>
<circle cx="16.4746" cy="28.4577" r="2.49153" fill="#C4C4C4"/>
<circle cx="16.4746" cy="15.4746" r="2.49153" fill="#C4C4C4"/>
<circle cx="16.4746" cy="41.4407" r="2.49153" fill="#C4C4C4"/>
<circle cx="30.4576" cy="2.49153" r="2.49153" fill="#C4C4C4"/>
<circle cx="30.4576" cy="28.4577" r="2.49153" fill="#C4C4C4"/>
<circle cx="30.4576" cy="15.4746" r="2.49153" fill="#C4C4C4"/>
<circle cx="30.4576" cy="41.4407" r="2.49153" fill="#C4C4C4"/>
<circle cx="44.4406" cy="2.49153" r="2.49153" fill="#C4C4C4"/>
<circle cx="44.4406" cy="28.4577" r="2.49153" fill="#C4C4C4"/>
<circle cx="44.4406" cy="15.4746" r="2.49153" fill="#C4C4C4"/>
<circle cx="44.4406" cy="41.4407" r="2.49153" fill="#C4C4C4"/>
<circle cx="58.4237" cy="2.49153" r="2.49153" fill="#C4C4C4"/>
<circle cx="58.4237" cy="28.4577" r="2.49153" fill="#C4C4C4"/>
<circle cx="58.4237" cy="15.4746" r="2.49153" fill="#C4C4C4"/>
<circle cx="58.4237" cy="41.4407" r="2.49153" fill="#C4C4C4"/>
<circle cx="72.4067" cy="2.49153" r="2.49153" fill="#C4C4C4"/>
<circle cx="72.4067" cy="28.4577" r="2.49153" fill="#C4C4C4"/>
<circle cx="72.4067" cy="15.4746" r="2.49153" fill="#C4C4C4"/>
<circle cx="72.4067" cy="41.4407" r="2.49153" fill="#C4C4C4"/>
<circle cx="86.3897" cy="2.49153" r="2.49153" fill="#C4C4C4"/>
<circle cx="86.3897" cy="28.4577" r="2.49153" fill="#C4C4C4"/>
<circle cx="86.3897" cy="15.4746" r="2.49153" fill="#C4C4C4"/>
<circle cx="86.3897" cy="41.4407" r="2.49153" fill="#C4C4C4"/>
<circle cx="100.373" cy="2.49153" r="2.49153" fill="#C4C4C4"/>
<circle cx="100.373" cy="28.4577" r="2.49153" fill="#C4C4C4"/>
<circle cx="100.373" cy="15.4746" r="2.49153" fill="#C4C4C4"/>
<circle cx="100.373" cy="41.4407" r="2.49153" fill="#C4C4C4"/>
<circle cx="114.356" cy="2.49153" r="2.49153" fill="#C4C4C4"/>
<circle cx="114.356" cy="28.4577" r="2.49153" fill="#C4C4C4"/>
<circle cx="114.356" cy="15.4746" r="2.49153" fill="#C4C4C4"/>
<circle cx="114.356" cy="41.4407" r="2.49153" fill="#C4C4C4"/>
</svg>
