<svg width="30" height="30" viewBox="0 0 30 30" fill="none" xmlns="http://www.w3.org/2000/svg">
<path d="M15.0012 2.50256C8.09869 2.50256 2.50244 8.09881 2.50244 15.0013C2.50244 21.2388 7.07244 26.4088 13.0487 27.3501V18.6151H9.87369V15.0013H13.0487V12.2476C13.0487 9.11256 14.9149 7.38381 17.7687 7.38381C19.1362 7.38381 20.5687 7.62756 20.5687 7.62756V10.7013H18.9887C17.4387 10.7013 16.9537 11.6663 16.9537 12.6551V14.9988H20.4174L19.8637 18.6126H16.9537V27.3476C22.9299 26.4113 27.4999 21.2401 27.4999 15.0013C27.4999 8.09881 21.9037 2.50256 15.0012 2.50256V2.50256Z" fill="#A0AEC0"/>
</svg>
