<svg width="769" height="406" viewBox="0 0 769 406" fill="none" xmlns="http://www.w3.org/2000/svg">
<path d="M163.5 256C60.7 272.4 11.6667 359.833 0 401.5L226.5 501C209 476.5 193.2 420.7 270 393.5C346.8 366.3 520 417.5 778 204L806.5 0H620C636.333 15.6667 644.3 69.4 545.5 159C422 271 292 235.5 163.5 256Z" fill="#4F4F4F"/>
<path d="M126 399.5C131.5 371.333 178.8 311.9 324 299.5C505.5 284 557.64 254.868 651 187.5C739 124 757.333 88.1667 767.5 42.5" stroke="white" stroke-width="3" stroke-dasharray="80 80"/>
<path d="M194.902 339.201L192.655 314H217.345L215.095 339.197L204.985 342L194.902 339.201Z" fill="#E44F26"/>
<path d="M205 339.858L213.17 337.593L215.092 316.061H205V339.858Z" fill="#F1662A"/>
<path d="M205 325.407H200.91L200.628 322.242H205V319.151H197.25L197.324 319.981L198.083 328.498H205V325.407Z" fill="#EBEBEB"/>
<path d="M205 333.434L204.986 333.438L201.544 332.509L201.324 330.044H198.221L198.654 334.896L204.986 336.654L205 336.65V333.434Z" fill="#EBEBEB"/>
<path d="M204.989 325.407V328.498H208.795L208.437 332.507L204.989 333.437V336.653L211.326 334.896L211.372 334.374L212.098 326.237L212.174 325.407H204.989Z" fill="white"/>
<path d="M204.989 319.151V322.242H212.455L212.517 321.548L212.658 319.981L212.732 319.151H204.989Z" fill="white"/>
<path d="M408.902 297.201L406.656 272H431.344L429.095 297.197L418.985 300L408.902 297.201Z" fill="#1572B6"/>
<path d="M419 297.858L427.17 295.593L429.092 274.061H419V297.858Z" fill="#33A9DC"/>
<path d="M419 283.191H423.09L423.372 280.026H419V276.935H426.75L426.676 277.764L425.917 286.282H419V283.191Z" fill="white"/>
<path d="M419.019 291.218L419.005 291.222L415.563 290.292L415.343 287.827H412.24L412.673 292.68L419.004 294.438L419.019 294.434V291.218Z" fill="#EBEBEB"/>
<path d="M422.827 286.151L422.455 290.29L419.008 291.22V294.436L425.344 292.68L425.391 292.158L425.928 286.151H422.827Z" fill="white"/>
<path d="M419.011 276.935V280.026H411.545L411.483 279.331L411.342 277.764L411.268 276.935H419.011Z" fill="#EBEBEB"/>
<path d="M419 283.191V286.282H415.601L415.539 285.587L415.399 284.02L415.325 283.191H419Z" fill="#EBEBEB"/>
<path d="M564 221H592V249H564V221Z" fill="#F5DE19"/>
<path d="M582.809 242.875C583.048 243.36 583.418 243.767 583.878 244.05C584.338 244.333 584.869 244.48 585.409 244.475C586.499 244.475 587.196 243.93 587.196 243.175C587.196 242.275 586.48 241.953 585.28 241.428L584.622 241.146C582.722 240.337 581.462 239.324 581.462 237.182C581.462 235.209 582.962 233.706 585.315 233.706C586.077 233.651 586.838 233.821 587.503 234.196C588.169 234.571 588.709 235.133 589.057 235.813L587 237.128C586.866 236.791 586.633 236.503 586.331 236.301C586.029 236.1 585.674 235.995 585.311 236C585.153 235.984 584.993 236.001 584.842 236.051C584.691 236.1 584.551 236.18 584.433 236.287C584.314 236.393 584.219 236.522 584.154 236.667C584.088 236.812 584.054 236.969 584.052 237.128C584.052 237.917 584.541 238.237 585.67 238.728L586.328 239.01C588.564 239.969 589.828 240.946 589.828 243.143C589.828 245.512 587.967 246.81 585.468 246.81C584.494 246.872 583.523 246.651 582.673 246.173C581.822 245.696 581.127 244.982 580.673 244.119L582.809 242.875ZM573.514 243.103C573.927 243.836 574.303 244.456 575.207 244.456C576.071 244.456 576.617 244.118 576.617 242.803V233.856H579.248V242.838C579.248 245.562 577.648 246.802 575.319 246.802C574.496 246.847 573.678 246.642 572.974 246.214C572.269 245.785 571.711 245.154 571.372 244.402L573.514 243.103Z" fill="black"/>
<path d="M732.777 119.714C732.404 119.591 732.029 119.477 731.65 119.372C731.714 119.122 731.773 118.875 731.824 118.633C732.677 114.648 732.12 111.438 730.215 110.381C728.39 109.368 725.403 110.425 722.388 112.951C722.09 113.2 721.8 113.457 721.516 113.72C721.326 113.545 721.133 113.373 720.936 113.205C717.776 110.504 714.608 109.366 712.705 110.426C710.881 111.442 710.341 114.459 711.109 118.235C711.185 118.609 711.271 118.981 711.367 119.351C710.919 119.474 710.486 119.604 710.072 119.743C706.366 120.987 704 122.935 704 124.956C704 127.044 706.541 129.138 710.4 130.407C710.713 130.51 711.028 130.605 711.346 130.692C711.243 131.091 711.151 131.491 711.072 131.895C710.34 135.605 710.911 138.551 712.73 139.561C714.61 140.604 717.763 139.532 720.834 136.949C721.083 136.739 721.327 136.523 721.565 136.301C721.872 136.586 722.187 136.863 722.511 137.132C725.485 139.595 728.423 140.59 730.241 139.577C732.118 138.531 732.728 135.366 731.936 131.516C731.874 131.214 731.804 130.914 731.726 130.615C731.948 130.552 732.165 130.487 732.377 130.42C736.389 129.14 739 127.072 739 124.956C739 122.928 736.557 120.966 732.777 119.714ZM731.907 129.054C731.715 129.115 731.519 129.174 731.319 129.231C730.876 127.881 730.278 126.446 729.547 124.963C730.245 123.516 730.819 122.099 731.25 120.759C731.608 120.858 731.955 120.963 732.29 121.074C735.529 122.148 737.505 123.734 737.505 124.956C737.505 126.259 735.371 127.949 731.907 129.054ZM730.469 131.795C730.82 133.498 730.869 135.037 730.637 136.241C730.429 137.322 730.01 138.043 729.491 138.332C728.389 138.946 726.03 138.148 723.486 136.041C723.185 135.791 722.892 135.534 722.606 135.269C723.592 134.231 724.578 133.024 725.54 131.684C727.232 131.539 728.83 131.303 730.28 130.98C730.351 131.258 730.415 131.529 730.469 131.795ZM715.932 138.226C714.855 138.592 713.996 138.603 713.477 138.315C712.373 137.702 711.915 135.336 712.541 132.163C712.615 131.788 712.7 131.415 712.796 131.045C714.23 131.35 715.817 131.57 717.513 131.702C718.481 133.013 719.495 134.219 720.517 135.274C720.3 135.476 720.078 135.674 719.85 135.865C718.492 137.008 717.132 137.818 715.932 138.226ZM710.884 129.046C709.177 128.484 707.768 127.755 706.802 126.959C705.933 126.243 705.495 125.533 705.495 124.956C705.495 123.73 707.395 122.165 710.564 121.102C710.949 120.973 711.351 120.851 711.769 120.737C712.207 122.108 712.782 123.542 713.475 124.991C712.773 126.463 712.19 127.919 711.748 129.306C711.457 129.226 711.169 129.139 710.884 129.046ZM712.576 117.959C711.918 114.724 712.355 112.283 713.455 111.671C714.625 111.019 717.215 111.949 719.944 114.281C720.122 114.433 720.297 114.589 720.469 114.747C719.452 115.798 718.447 116.995 717.487 118.298C715.841 118.445 714.265 118.681 712.817 118.997C712.727 118.653 712.647 118.307 712.576 117.959V117.959ZM727.674 121.547C727.331 120.978 726.976 120.416 726.609 119.862C727.726 119.998 728.796 120.179 729.801 120.399C729.499 121.33 729.123 122.302 728.68 123.3C728.357 122.709 728.021 122.125 727.674 121.547ZM721.517 115.776C722.206 116.495 722.897 117.298 723.576 118.169C722.198 118.106 720.818 118.106 719.44 118.168C720.12 117.305 720.816 116.503 721.517 115.776ZM715.321 121.557C714.977 122.13 714.648 122.711 714.333 123.299C713.897 122.305 713.525 121.328 713.22 120.384C714.219 120.169 715.284 119.993 716.394 119.86C716.022 120.417 715.664 120.983 715.321 121.557V121.557ZM716.425 130.156C715.279 130.033 714.198 129.866 713.2 129.657C713.509 128.696 713.89 127.698 714.334 126.683C714.651 127.271 714.982 127.852 715.326 128.426C715.681 129.015 716.048 129.593 716.425 130.156ZM721.558 134.239C720.849 133.503 720.143 132.689 719.452 131.813C720.122 131.838 720.806 131.851 721.5 131.851C722.213 131.851 722.919 131.836 723.613 131.806C722.931 132.698 722.243 133.513 721.558 134.239ZM728.695 126.631C729.162 127.657 729.557 128.65 729.87 129.594C728.855 129.817 727.759 129.997 726.605 130.13C726.975 129.565 727.333 128.994 727.679 128.416C728.032 127.828 728.37 127.233 728.695 126.631ZM726.384 127.697C725.854 128.583 725.294 129.453 724.705 130.304C723.638 130.377 722.569 130.413 721.5 130.413C720.411 130.413 719.351 130.38 718.331 130.316C717.727 129.467 717.156 128.596 716.62 127.705H716.621C716.087 126.819 715.589 125.913 715.127 124.991C715.588 124.068 716.085 123.162 716.616 122.275L716.616 122.276C717.147 121.388 717.713 120.521 718.313 119.675C719.354 119.6 720.421 119.56 721.5 119.56H721.5C722.584 119.56 723.652 119.6 724.693 119.676C725.287 120.521 725.849 121.385 726.379 122.268C726.913 123.153 727.416 124.054 727.888 124.97C727.421 125.896 726.919 126.806 726.384 127.697ZM729.469 111.628C730.641 112.279 731.096 114.902 730.36 118.342C730.313 118.561 730.26 118.785 730.203 119.012C728.751 118.689 727.174 118.449 725.523 118.3C724.561 116.982 723.565 115.784 722.564 114.746C722.827 114.503 723.095 114.266 723.369 114.036C725.953 111.872 728.368 111.017 729.469 111.628ZM721.5 121.949C723.226 121.949 724.625 123.295 724.625 124.956C724.625 126.618 723.226 127.964 721.5 127.964C719.774 127.964 718.375 126.618 718.375 124.956C718.375 123.295 719.774 121.949 721.5 121.949Z" fill="#00D8FF"/>
</svg>
