<svg width="30" height="30" viewBox="0 0 30 30" fill="none" xmlns="http://www.w3.org/2000/svg">
<path d="M14.9999 8.99147C11.6747 8.99147 8.99111 11.6751 8.99111 15.0003C8.99111 18.3255 11.6747 21.0091 14.9999 21.0091C18.3251 21.0091 21.0087 18.3255 21.0087 15.0003C21.0087 11.6751 18.3251 8.99147 14.9999 8.99147ZM14.9999 18.9055C12.8495 18.9055 11.0946 17.1507 11.0946 15.0003C11.0946 12.8499 12.8495 11.095 14.9999 11.095C17.1503 11.095 18.9052 12.8499 18.9052 15.0003C18.9052 17.1507 17.1503 18.9055 14.9999 18.9055ZM21.2548 7.34499C20.4784 7.34499 19.8515 7.97194 19.8515 8.74831C19.8515 9.52468 20.4784 10.1516 21.2548 10.1516C22.0312 10.1516 22.6581 9.52761 22.6581 8.74831C22.6583 8.56396 22.6222 8.38137 22.5518 8.21101C22.4813 8.04064 22.378 7.88585 22.2476 7.75549C22.1172 7.62514 21.9625 7.52178 21.7921 7.45134C21.6217 7.3809 21.4391 7.34476 21.2548 7.34499V7.34499ZM26.7128 15.0003C26.7128 13.3831 26.7275 11.7805 26.6366 10.1663C26.5458 8.29128 26.1181 6.62721 24.747 5.25612C23.373 3.8821 21.7118 3.45729 19.8368 3.36647C18.2196 3.27565 16.6171 3.2903 15.0028 3.2903C13.3856 3.2903 11.7831 3.27565 10.1688 3.36647C8.29384 3.45729 6.62978 3.88503 5.25869 5.25612C3.88466 6.63014 3.45986 8.29128 3.36904 10.1663C3.27822 11.7835 3.29286 13.386 3.29286 15.0003C3.29286 16.6145 3.27822 18.22 3.36904 19.8342C3.45986 21.7092 3.88759 23.3733 5.25869 24.7444C6.63271 26.1184 8.29384 26.5432 10.1688 26.6341C11.786 26.7249 13.3886 26.7102 15.0028 26.7102C16.62 26.7102 18.2226 26.7249 19.8368 26.6341C21.7118 26.5432 23.3759 26.1155 24.747 24.7444C26.121 23.3704 26.5458 21.7092 26.6366 19.8342C26.7304 18.22 26.7128 16.6174 26.7128 15.0003V15.0003ZM24.1347 21.9085C23.9208 22.4417 23.663 22.8401 23.2499 23.2503C22.8368 23.6633 22.4413 23.9212 21.9081 24.135C20.3671 24.7473 16.7079 24.6096 14.9999 24.6096C13.2919 24.6096 9.62978 24.7473 8.08877 24.138C7.55556 23.9241 7.15712 23.6663 6.74697 23.2532C6.33388 22.8401 6.07607 22.4446 5.8622 21.9114C5.25283 20.3675 5.39052 16.7083 5.39052 15.0003C5.39052 13.2923 5.25283 9.63014 5.8622 8.08913C6.07607 7.55593 6.33388 7.15749 6.74697 6.74733C7.16005 6.33718 7.55556 6.07643 8.08877 5.86257C9.62978 5.25319 13.2919 5.39089 14.9999 5.39089C16.7079 5.39089 20.37 5.25319 21.911 5.86257C22.4442 6.07643 22.8427 6.33425 23.2528 6.74733C23.6659 7.16042 23.9237 7.55593 24.1376 8.08913C24.747 9.63014 24.6093 13.2923 24.6093 15.0003C24.6093 16.7083 24.747 20.3674 24.1347 21.9085Z" fill="#A0AEC0"/>
</svg>
