<svg width="143" height="53" viewBox="0 0 143 53" fill="none" xmlns="http://www.w3.org/2000/svg">
<g filter="url(#filter0_d)">
<rect x="4" width="135" height="45" rx="22.5" fill="#F6F6F6"/>
</g>
<circle cx="28" cy="22" r="22" fill="#F7F7F7"/>
<ellipse cx="30.6623" cy="23.1294" rx="2.66719" ry="2.56687" fill="url(#paint0_linear)"/>
<path d="M27.8639 18.2329L23.9282 22.7818C22.4645 24.9588 20.054 27.8533 26.6895 27.6194C34.9838 27.3269 35.5043 30.4462 32.4143 35.0926C30.7446 37.6032 30.0295 38.7432 29.778 39.1853C29.7454 39.2637 29.7133 39.34 29.6819 39.414C29.6432 39.4492 29.6571 39.3978 29.778 39.1853C30.8704 36.559 32.5718 31.6153 31.3084 31.161C30.0072 30.6931 24.2175 31.356 21.4853 31.7459C16.7147 32.764 11.6751 30.4592 29.6819 13.0953C47.6888 -4.26848 35.3668 8.76686 27.8639 18.2329Z" fill="url(#paint1_linear)"/>
<path d="M51.0049 19.9951H48.209V28H45.9941V19.9951H43.2119V18.1973H51.0049V19.9951ZM57.9231 28H52.0442V18.1973H57.6975V19.9951H54.2522V22.1758H57.4583V23.9668H54.2522V26.209H57.9231V28ZM66.2427 27.6514C65.5272 27.9977 64.593 28.1709 63.44 28.1709C61.9361 28.1709 60.7535 27.7288 59.8921 26.8447C59.0308 25.9606 58.6002 24.7826 58.6002 23.3105C58.6002 21.7428 59.0832 20.4714 60.0494 19.4961C61.0201 18.5208 62.2779 18.0332 63.8228 18.0332C64.7798 18.0332 65.5865 18.154 66.2427 18.3955V20.5215C65.5865 20.1296 64.8391 19.9336 64.0005 19.9336C63.08 19.9336 62.3371 20.223 61.772 20.8018C61.2069 21.3805 60.9244 22.1644 60.9244 23.1533C60.9244 24.1012 61.191 24.8577 61.7242 25.4229C62.2574 25.9834 62.9752 26.2637 63.8775 26.2637C64.7388 26.2637 65.5272 26.054 66.2427 25.6348V27.6514ZM76.1551 28H73.9403V24.0078H69.8797V28H67.6717V18.1973H69.8797V22.1074H73.9403V18.1973H76.1551V28ZM77.8302 27.6035V26.25C77.9851 26.3867 78.1697 26.5098 78.3839 26.6191C78.6027 26.7285 78.8305 26.8219 79.0675 26.8994C79.309 26.9723 79.5506 27.0293 79.7921 27.0703C80.0336 27.1113 80.257 27.1318 80.462 27.1318C81.1684 27.1318 81.6948 27.002 82.0411 26.7422C82.392 26.4779 82.5675 26.0996 82.5675 25.6074C82.5675 25.3431 82.5083 25.113 82.3898 24.917C82.2758 24.721 82.1163 24.5433 81.9113 24.3838C81.7062 24.2197 81.4624 24.0648 81.1798 23.9189C80.9018 23.7686 80.601 23.6113 80.2775 23.4473C79.9357 23.2741 79.6167 23.0986 79.3204 22.9209C79.0242 22.7432 78.7667 22.5472 78.548 22.333C78.3292 22.1188 78.156 21.8773 78.0284 21.6084C77.9054 21.335 77.8439 21.016 77.8439 20.6514C77.8439 20.2048 77.9419 19.8174 78.1378 19.4893C78.3338 19.1566 78.5913 18.8831 78.9103 18.6689C79.2293 18.4548 79.5916 18.2952 79.9972 18.1904C80.4073 18.0856 80.8243 18.0332 81.2482 18.0332C82.2143 18.0332 82.9184 18.1494 83.3605 18.3818V19.6738C82.7817 19.2728 82.0389 19.0723 81.132 19.0723C80.8813 19.0723 80.6307 19.0996 80.38 19.1543C80.1294 19.2044 79.906 19.2887 79.7101 19.4072C79.5141 19.5257 79.3546 19.6784 79.2316 19.8652C79.1085 20.0521 79.047 20.2799 79.047 20.5488C79.047 20.7995 79.0926 21.016 79.1837 21.1982C79.2794 21.3805 79.4184 21.5469 79.6007 21.6973C79.783 21.8477 80.004 21.9935 80.2638 22.1348C80.5281 22.276 80.8312 22.431 81.173 22.5996C81.5239 22.7728 81.8566 22.9551 82.171 23.1465C82.4855 23.3379 82.7612 23.5498 82.9982 23.7822C83.2351 24.0146 83.422 24.2721 83.5587 24.5547C83.7 24.8372 83.7706 25.1608 83.7706 25.5254C83.7706 26.0085 83.6749 26.4186 83.4835 26.7559C83.2967 27.0885 83.0415 27.3597 82.7179 27.5693C82.3989 27.779 82.0297 27.9294 81.6105 28.0205C81.1912 28.1162 80.7491 28.1641 80.2843 28.1641C80.1294 28.1641 79.9379 28.1504 79.7101 28.123C79.4822 28.1003 79.2498 28.0638 79.0128 28.0137C78.7758 27.9681 78.5502 27.9111 78.3361 27.8428C78.1264 27.7699 77.9578 27.6901 77.8302 27.6035ZM93.0336 28H91.7621L90.723 25.252H86.5668L85.5893 28H84.3109L88.0707 18.1973H89.2602L93.0336 28ZM90.3471 24.2197L88.809 20.043C88.7589 19.9062 88.7087 19.6875 88.6586 19.3867H88.6312C88.5857 19.6647 88.5333 19.8835 88.474 20.043L86.9496 24.2197H90.3471ZM95.3512 24.2949V28H94.2028V18.1973H96.8962C97.9443 18.1973 98.7555 18.4525 99.3298 18.9629C99.9085 19.4733 100.198 20.1934 100.198 21.123C100.198 22.0527 99.8766 22.8138 99.2341 23.4062C98.596 23.9987 97.7324 24.2949 96.6432 24.2949H95.3512ZM95.3512 19.2363V23.2559H96.5544C97.3473 23.2559 97.9512 23.0758 98.3659 22.7158C98.7852 22.3512 98.9948 21.8385 98.9948 21.1777C98.9948 19.8835 98.2292 19.2363 96.6979 19.2363H95.3512ZM102.919 28H101.77V18.1973H102.919V28ZM110.418 28H105.223V18.1973H110.199V19.2363H106.371V22.4971H109.912V23.5293H106.371V26.9609H110.418V28ZM119.927 28H118.519L113.474 20.1865C113.347 19.9906 113.242 19.7855 113.16 19.5713H113.119C113.155 19.7809 113.173 20.2298 113.173 20.918V28H112.025V18.1973H113.515L118.423 25.8877C118.628 26.2067 118.761 26.4255 118.82 26.5439H118.847C118.802 26.2614 118.779 25.7806 118.779 25.1016V18.1973H119.927V28Z" fill="black"/>
<defs>
<filter id="filter0_d" x="0" y="0" width="143" height="53" filterUnits="userSpaceOnUse" color-interpolation-filters="sRGB">
<feFlood flood-opacity="0" result="BackgroundImageFix"/>
<feColorMatrix in="SourceAlpha" type="matrix" values="0 0 0 0 0 0 0 0 0 0 0 0 0 0 0 0 0 0 127 0"/>
<feOffset dy="4"/>
<feGaussianBlur stdDeviation="2"/>
<feColorMatrix type="matrix" values="0 0 0 0 0 0 0 0 0 0 0 0 0 0 0 0 0 0 0.25 0"/>
<feBlend mode="normal" in2="BackgroundImageFix" result="effect1_dropShadow"/>
<feBlend mode="normal" in="SourceGraphic" in2="effect1_dropShadow" result="shape"/>
</filter>
<linearGradient id="paint0_linear" x1="27.8469" y1="22.2053" x2="33.2832" y2="24.1595" gradientUnits="userSpaceOnUse">
<stop stop-color="#2298BD"/>
<stop offset="1" stop-color="#0ED7B5"/>
</linearGradient>
<linearGradient id="paint1_linear" x1="28" y1="4.57617" x2="28" y2="39.4242" gradientUnits="userSpaceOnUse">
<stop stop-color="#0F2027"/>
<stop offset="0.526042" stop-color="#2C5364"/>
<stop offset="1" stop-color="#203A43"/>
</linearGradient>
</defs>
</svg>
