<svg width="335" height="410" viewBox="0 0 335 410" fill="none" xmlns="http://www.w3.org/2000/svg">
<path fill-rule="evenodd" clip-rule="evenodd" d="M178.908 96.0156C187.172 100.996 195.291 103.403 199.102 102.42C208.658 99.9569 209.537 64.9958 202.143 51.213C194.748 37.4302 156.734 31.4228 154.818 58.7309C154.153 68.2086 158.133 76.6669 164.013 83.5688L153.47 132.709H184.095L178.908 96.0156Z" fill="#E3C2A3"/>
<path fill-rule="evenodd" clip-rule="evenodd" d="M205.788 38.2815C205.788 45.097 200.445 50.6645 193.719 51.0236C189.871 52.2108 184.928 53.0825 179.445 53.4501C179.978 55.4517 180.267 57.7257 180.267 60.2954C180.267 62.5644 180.016 64.9708 179.555 67.4142C178.366 66.0008 176.776 65.0786 175.163 65.0786C170.649 65.0786 167.506 68.7921 167.506 72.7349C167.506 77.7389 170.395 81.359 174.612 81.6485C170.815 88.9381 165.562 94.4277 160.315 94.4277C150.348 94.4277 143.261 81.1023 143.261 66.7752C143.261 66.2718 143.271 65.7717 143.291 65.2754C139.917 67.5908 136.791 70.6257 133.642 73.6826C126.951 80.1776 120.158 86.7714 110.672 86.7714C91.6927 86.7714 84.1552 48.4899 110.672 48.4899C128.706 48.4899 137.576 51.1192 145.221 55.0073C146.729 50.7567 149.028 47.1829 151.839 44.6872C152.515 43.9258 153.552 43.1973 154.89 42.522C155.708 42.0746 156.554 41.7102 157.424 41.436C162.034 39.7417 168.712 38.5467 176.172 38.2862C177.564 38.2375 178.932 38.2233 180.267 38.2412C180.289 31.2123 185.993 25.521 193.027 25.521C200.075 25.521 205.788 31.2341 205.788 38.2815Z" fill="#183E47"/>
<path fill-rule="evenodd" clip-rule="evenodd" d="M38.6596 297.576C43.6596 290.755 73.7665 217.407 73.7665 217.407L96.2393 221.476C96.2393 221.476 57.1155 299.113 54.3298 303.575C50.7111 309.372 53.3899 319.194 55.2063 325.854C55.4873 326.884 55.7477 327.839 55.9609 328.691C51.6187 329.782 50.0692 327.265 48.4356 324.61C46.5905 321.612 44.6382 318.44 38.4333 320.097C36.0361 320.737 33.7248 321.586 31.4666 322.415C23.6665 325.28 16.5009 327.912 8.62124 320.898C7.37203 319.785 6.41018 316.258 10.5702 314.368C20.9344 309.658 36.2153 300.911 38.6596 297.576ZM298.669 259.747L257.965 229.857L248.967 252.1L289.274 268.814C300.674 282.205 307.048 287.787 308.398 285.561C309.535 283.684 308.646 281.927 307.827 280.308C307.189 279.047 306.593 277.871 307.032 276.787C308.033 274.312 315.691 274.572 322.947 275.13C330.203 275.688 328.088 272.46 326.339 270.865C318.932 266.432 309.708 262.725 298.669 259.747Z" fill="#E3C2A3"/>
<path fill-rule="evenodd" clip-rule="evenodd" d="M184.432 123.83L170.785 129.427C170.928 132.991 170.914 138.062 170.898 143.871C170.847 162.104 170.776 187.614 175.486 196.667C191.806 228.032 225.315 244.37 262.637 262.567C267.64 265.006 272.711 267.478 277.818 270.025L288.087 249.062C286.897 248.219 285.718 247.371 284.55 246.518C286.163 245.953 287.508 244.676 288.096 242.931C289.109 239.926 287.494 236.668 284.488 235.656C278.381 233.598 272.684 232.73 267.447 233.106C229.202 200.88 203.456 163.154 184.432 123.83Z" fill="url(#paint0_linear)"/>
<path fill-rule="evenodd" clip-rule="evenodd" d="M122.844 266.579C122.844 266.579 183.02 273.19 217.574 266.579C220.428 266.033 220.302 253.73 218.979 250.37C198.368 198.045 184.81 159.741 184.81 123.397C179.137 126.361 164.954 124.286 164.954 124.286C139.543 161.739 127.863 204.712 122.844 266.579Z" fill="#183E47"/>
<path fill-rule="evenodd" clip-rule="evenodd" d="M58.8924 409.612C89.9848 397.192 121.579 401.292 150.04 404.985C169.76 407.544 187.976 409.907 203.479 406.445C216.087 341.623 198.596 269.983 184.267 211.294C175.307 174.597 167.583 142.963 169.227 121.225H156.7L154.715 121.225C154.715 121.225 81.9869 165.861 46.5271 267.212C43.7499 267.724 41.116 268.619 38.6335 269.905C36.2841 271.123 39.5729 278.423 42.3624 279.961C41.356 283.272 40.3904 286.64 39.4688 290.064L63.5693 297.155C81.0257 251.143 101.714 224.598 118.804 209.373C118.913 214.484 119.449 219.626 119.989 224.8L119.989 224.801C120.973 234.225 121.968 243.757 120.409 253.403C120.104 255.29 119.735 257.192 119.307 259.106C116.857 259.397 114.782 261.258 114.332 263.813L113.667 267.582C113.318 269.562 114.028 271.484 115.391 272.766C109.452 290.06 99.9125 308.146 90.3454 326.285C75.2525 354.9 60.0912 383.645 58.8924 409.612Z" fill="url(#paint1_linear)"/>
<path fill-rule="evenodd" clip-rule="evenodd" d="M127.106 122.225L121.947 138.09L132.336 149.984L122.947 159.33L145.662 198.225L117.884 159.408L127.106 149.984L117.884 139.473L127.106 122.225Z" fill="black" fill-opacity="0.1"/>
<path fill-rule="evenodd" clip-rule="evenodd" d="M139 213.225C141.209 213.225 143 211.434 143 209.225C143 207.016 141.209 205.225 139 205.225C136.791 205.225 135 207.016 135 209.225C135 211.434 136.791 213.225 139 213.225ZM144 236.225C146.209 236.225 148 234.434 148 232.225C148 230.016 146.209 228.225 144 228.225C141.791 228.225 140 230.016 140 232.225C140 234.434 141.791 236.225 144 236.225ZM149 255.225C149 257.434 147.209 259.225 145 259.225C142.791 259.225 141 257.434 141 255.225C141 253.016 142.791 251.225 145 251.225C147.209 251.225 149 253.016 149 255.225Z" fill="black" fill-opacity="0.4"/>
<defs>
<linearGradient id="paint0_linear" x1="167.517" y1="170.612" x2="293.135" y2="205.574" gradientUnits="userSpaceOnUse">
<stop stop-color="#2298BD"/>
<stop offset="1" stop-color="#0ED7B5"/>
</linearGradient>
<linearGradient id="paint1_linear" x1="33.1092" y1="213.509" x2="220.916" y2="251.805" gradientUnits="userSpaceOnUse">
<stop stop-color="#2298BD"/>
<stop offset="1" stop-color="#0ED7B5"/>
</linearGradient>
</defs>
</svg>
